<?xml version="1.0" encoding="iso-8859-1"?>
<!-- Generator: Adobe Illustrator 16.0.0, SVG Export Plug-In . SVG Version: 6.00 Build 0)  -->
<!DOCTYPE svg PUBLIC "-//W3C//DTD SVG 1.1//EN" "http://www.w3.org/Graphics/SVG/1.1/DTD/svg11.dtd">
<svg version="1.1" id="Capa_1" xmlns="http://www.w3.org/2000/svg" xmlns:xlink="http://www.w3.org/1999/xlink" x="0px" y="0px"
	 width="363.4px" height="363.4px" viewBox="0 0 363.4 363.4" style="enable-background:new 0 0 363.4 363.4;" xml:space="preserve"
	>
<g>
	<g>
		<path d="M133.9,86.1C133.9,53.6,86.1,0,86.1,0S38.3,53.5,38.3,86.1c0,24.9,15.3,47.8,47.8,47.8S133.9,109.1,133.9,86.1z M86,114.8
			c-13.4,0-28.7-5.7-28.7-28.7C57.3,67,86,30.6,86,30.6s28.7,36.3,28.7,55.5C114.7,109.1,99.4,114.8,86,114.8z"/>
		<path d="M277.3,76.6c0,0-47.8,53.5-47.8,86.1c0,24.9,15.3,47.8,47.8,47.8s47.8-24.899,47.8-47.8
			C325.1,130.1,277.3,76.6,277.3,76.6z M277.3,191.3c-13.4,0-28.7-5.699-28.7-28.7c0-19.1,28.7-55.5,28.7-55.5s28.7,36.3,28.7,55.5
			C306,185.601,290.7,191.3,277.3,191.3z"/>
		<path d="M95.6,315.601c0,24.899,15.3,47.8,47.8,47.8s47.8-24.9,47.8-47.8c0-32.5-47.8-86.101-47.8-86.101
			S95.6,283.101,95.6,315.601z M143.4,344.3c-13.4,0-28.7-5.699-28.7-28.699c0-19.101,28.7-55.5,28.7-55.5s28.7,36.3,28.7,55.5
			C172.1,338.601,156.8,344.3,143.4,344.3z"/>
	</g>
</g>
<g>
</g>
<g>
</g>
<g>
</g>
<g>
</g>
<g>
</g>
<g>
</g>
<g>
</g>
<g>
</g>
<g>
</g>
<g>
</g>
<g>
</g>
<g>
</g>
<g>
</g>
<g>
</g>
<g>
</g>
</svg>
